<svg width="80" height="75" xmlns:xlink="http://www.w3.org/1999/xlink" xmlns="http://www.w3.org/2000/svg"><defs><linearGradient xlink:href="#a" id="c" gradientUnits="userSpaceOnUse" gradientTransform="matrix(.9992 0 0 1.0008 -269.66 41.789)" x1="327.177" y1="104.519" x2="397.454" y2="69.893"/><linearGradient id="a"><stop style="stop-color:#ffd32a;stop-opacity:1" offset="0"/><stop style="stop-color:#fb752b;stop-opacity:1" offset=".575"/><stop style="stop-color:#ec006d;stop-opacity:1" offset="1"/></linearGradient><linearGradient xlink:href="#b" id="d" gradientUnits="userSpaceOnUse" gradientTransform="matrix(.9992 0 0 1.0008 -244.787 120.66)" x1="382.307" y1="2.128" x2="339.972" y2="23.663"/><linearGradient id="b"><stop style="stop-color:#ffd32a;stop-opacity:1" offset="0"/><stop style="stop-color:#fb3288;stop-opacity:1" offset=".359"/><stop style="stop-color:#b20054;stop-opacity:1" offset=".785"/></linearGradient></defs><path style="font-variation-settings:normal;fill:url(#c);fill-opacity:1;stroke:none;stroke-width:6.00001;stroke-linecap:round;stroke-linejoin:round;stroke-miterlimit:4;stroke-dasharray:none;stroke-dashoffset:0;stroke-opacity:1;paint-order:fill markers stroke" d="M78.306 92.35c-6.04-.284-12.774 5.347-16.007 10.56-10.112 16.308-13.637 40.959-3.891 57.489 2.415 4.096 9.23 8.319 13.622 6.51 4.018-1.654 5.887-6.752 4.883-12.275-2.125-11.688-7.132-23.344-4.207-34.58.58-2.231 1.97-5.734 4.077-5.584 2.123.15 3.12 2.42 3.778 4.447 2.575 7.951-1.459 20.849 6.534 23.253 4.829 1.453 8.34-1.327 11.298-5.385-3.336 1.65-5.349-8.517-7.054-17.275-1.013-3.238-1.86-23.5-10.499-26.658a8.51 8.51 0 0 0-2.534-.502z" transform="translate(-52.652 -92.34)"/><path style="font-variation-settings:normal;vector-effect:none;fill:url(#d);fill-opacity:1;stroke:none;stroke-width:6.00001;stroke-linecap:round;stroke-linejoin:round;stroke-miterlimit:4;stroke-dasharray:none;stroke-dashoffset:0;stroke-opacity:1;-inkscape-stroke:none;paint-order:fill markers stroke;stop-color:#000" d="M111.845 97.23c-.325.01-.647.038-.967.084-.1.015-.199.041-.299.06-.216.038-.432.075-.645.13-.13.033-.26.079-.39.118-.182.055-.366.106-.548.172-.131.048-.26.107-.39.16-.175.071-.35.14-.523.22-.143.067-.284.145-.425.218-.158.082-.316.16-.472.248-.143.082-.284.173-.426.26-.154.096-.309.189-.461.29-.134.09-.266.187-.398.282-.157.111-.313.221-.468.34-.134.102-.267.212-.4.32-.148.119-.296.237-.441.362-.135.115-.267.236-.4.355-.144.13-.288.26-.43.394-.073.069-.144.141-.217.211-.49.475-.97.976-1.437 1.5l-.173.198c-.327.373-.642.765-.958 1.156-.226.28-.454.558-.675.846-.263.343-.517.694-.77 1.044-.215.296-.431.59-.639.889-.245.353-.48.708-.716 1.064-.2.301-.402.602-.595.903-.225.35-.439.696-.654 1.044-.18.29-.363.582-.536.868a139.14 139.14 0 0 0-2.02 3.475c-.305.54-.55.964-.822 1.447-.335.596-.701 1.25-.985 1.736-.195.335-.372.621-.542.892l-.128.209a8.627 8.627 0 0 1-.557.785c1.706 8.759 3.72 18.926 7.055 17.275 2.174-2.983 4.05-6.651 5.922-9.854.59-1.01 1.395-2.754 2.47-3.88.214-.226.44-.427.677-.592.474-.331.993-.52 1.56-.48.143.01.28.043.41.096.135.054.263.128.383.22.712.54 1.17 1.66 1.234 2.51.053.71.07 1.422.062 2.135l-.001.054c-.01.709-.047 1.418-.104 2.123v.001c-.059.717-.137 1.43-.229 2.137-.275 2.122-.668 4.187-.975 6.112a55.982 55.982 0 0 0-.271 1.876 27.977 27.977 0 0 0-.17 1.765c-.213 3.533 1.381 8.08 4.18 10.165.233.173.475.33.724.467.499.275 1.03.473 1.59.58.28.052.568.082.863.087a8.401 8.401 0 0 0 2.695-.415 9.873 9.873 0 0 0 1.675-.73 12.475 12.475 0 0 0 1.575-1.029 17.288 17.288 0 0 0 2.166-1.987c.455-.49.891-1.006 1.31-1.541.418-.535.817-1.089 1.198-1.652.38-.562.742-1.134 1.085-1.707a45.414 45.414 0 0 0 1.816-3.366c1.575-3.225 2.414-5.812 2.414-5.812s-1.13.933-2.728 1.961c-.532.343-1.117.697-1.729 1.03-1.53.832-3.232 1.536-4.722 1.627a4.695 4.695 0 0 1-.865-.023 3.446 3.446 0 0 1-.797-.192 2.895 2.895 0 0 1-.709-.387 5.829 5.829 0 0 1-1.552-1.742 7.017 7.017 0 0 1-.631-1.448 9.632 9.632 0 0 1-.329-1.5c-.007-.049-.018-.095-.024-.144a13.095 13.095 0 0 1-.085-.887 17.713 17.713 0 0 1-.01-1.866c0-.016 0-.031.002-.046.029-.643.087-1.306.168-1.985.33-2.753 1.036-5.764 1.701-8.73.333-1.483.656-2.954.917-4.377.391-2.133.642-4.155.579-5.939a11.85 11.85 0 0 0-.175-1.7c-.228-1.249-.578-2.499-1.053-3.678-.712-1.77-1.708-3.379-2.999-4.59a8.728 8.728 0 0 0-1.39-1.069 7.693 7.693 0 0 0-3.38-1.124 8.336 8.336 0 0 0-.996-.03z" transform="translate(-52.652 -92.34)"/></svg>